<?xml version="1.0" encoding="UTF-8" standalone="no"?>
<svg
   xmlns:dc="http://purl.org/dc/elements/1.1/"
   xmlns:cc="http://creativecommons.org/ns#"
   xmlns:rdf="http://www.w3.org/1999/02/22-rdf-syntax-ns#"
   xmlns:svg="http://www.w3.org/2000/svg"
   xmlns="http://www.w3.org/2000/svg"
   xmlns:sodipodi="http://sodipodi.sourceforge.net/DTD/sodipodi-0.dtd"
   xmlns:inkscape="http://www.inkscape.org/namespaces/inkscape"
   version="1.1"
   x="0px"
   y="0px"
   viewBox="0 0 100 100"
   enable-background="new 0 0 100 100"
   xml:space="preserve"
   id="svg2"
   inkscape:version="0.91 r13725"
   sodipodi:docname="clock_151677 (1).svg"><metadata
     id="metadata14"><rdf:RDF><cc:Work
         rdf:about=""><dc:format>image/svg+xml</dc:format><dc:type
           rdf:resource="http://purl.org/dc/dcmitype/StillImage" /></cc:Work></rdf:RDF></metadata><defs
     id="defs12" /><sodipodi:namedview
     pagecolor="#ffffff"
     bordercolor="#666666"
     borderopacity="1"
     objecttolerance="10"
     gridtolerance="10"
     guidetolerance="10"
     inkscape:pageopacity="0"
     inkscape:pageshadow="2"
     inkscape:window-width="1192"
     inkscape:window-height="720"
     id="namedview10"
     showgrid="false"
     inkscape:zoom="2.36"
     inkscape:cx="50"
     inkscape:cy="50"
     inkscape:window-x="0"
     inkscape:window-y="23"
     inkscape:window-maximized="0"
     inkscape:current-layer="svg2" /><g
     id="g4"
     style="fill:#00a7c0;fill-opacity:1"><path
       fill="#000000"
       d="M82.6,34.9l3.1-3.1c1.4-1.4,1.3-3.6,0-5l-5.6-5.5c-1.4-1.4-3.6-1.3-5,0l-2.7,2.7c-4.1-2.9-8.7-5.1-13.7-6.3   v-4.4h6c1.9,0,3.4-1.5,3.4-3.4V8.7c0-1.9-1.5-3.4-3.4-3.4H36.3c-1.9,0-3.4,1.5-3.4,3.4v1.2c0,1.9,1.5,3.4,3.4,3.4h5.3v4.1   c-17.7,3.7-31.1,19.4-31.1,38.2c0,21.6,17.5,39,39,39s39-17.5,39-39C88.6,48.1,86.4,40.9,82.6,34.9z M49.6,86.5   c-17,0-30.9-13.8-30.9-30.9s13.8-30.9,30.9-30.9s30.9,13.8,30.9,30.9S66.6,86.5,49.6,86.5z"
       id="path6"
       style="fill:#00a7c0;fill-opacity:1" /><path
       fill="#000000"
       d="M53.7,42.7c0-2.3-1.8-4.1-4.1-4.1s-4.1,1.8-4.1,4.1v16.2c0,2.3,1.8,4.1,4.1,4.1c0.1,0,0.3,0,0.4,0   c0.1,0,0.3,0,0.4,0h21.2c2.3,0,4.1-1.8,4.1-4.1s-1.8-4.1-4.1-4.1H53.7V42.7z"
       id="path8"
       style="fill:#00a7c0;fill-opacity:1" /></g></svg>