<?xml version="1.0" encoding="UTF-8" standalone="no"?>
<svg
   xmlns:dc="http://purl.org/dc/elements/1.1/"
   xmlns:cc="http://creativecommons.org/ns#"
   xmlns:rdf="http://www.w3.org/1999/02/22-rdf-syntax-ns#"
   xmlns:svg="http://www.w3.org/2000/svg"
   xmlns="http://www.w3.org/2000/svg"
   xmlns:sodipodi="http://sodipodi.sourceforge.net/DTD/sodipodi-0.dtd"
   xmlns:inkscape="http://www.inkscape.org/namespaces/inkscape"
   version="1.1"
   x="0px"
   y="0px"
   viewBox="0 0 100 100"
   enable-background="new 0 0 100 100"
   xml:space="preserve"
   id="svg3413"
   inkscape:version="0.91 r13725"
   sodipodi:docname="stethoscope_80806 (1).svg"><metadata
     id="metadata3425"><rdf:RDF><cc:Work
         rdf:about=""><dc:format>image/svg+xml</dc:format><dc:type
           rdf:resource="http://purl.org/dc/dcmitype/StillImage" /></cc:Work></rdf:RDF></metadata><defs
     id="defs3423" /><sodipodi:namedview
     pagecolor="#ffffff"
     bordercolor="#666666"
     borderopacity="1"
     objecttolerance="10"
     gridtolerance="10"
     guidetolerance="10"
     inkscape:pageopacity="0"
     inkscape:pageshadow="2"
     inkscape:window-width="1081"
     inkscape:window-height="721"
     id="namedview3421"
     showgrid="false"
     inkscape:zoom="3.01"
     inkscape:cx="33.674752"
     inkscape:cy="42.442196"
     inkscape:window-x="198"
     inkscape:window-y="8"
     inkscape:window-maximized="0"
     inkscape:current-layer="svg3413" /><g
     id="g3415"
     style="fill:#00a7c0;fill-opacity:1;stroke:#00a7c0;stroke-opacity:0"><path
       d="M87.1,14.3h-6.3c-1.3,0-2.4,1.1-2.4,2.4s1.1,2.4,2.4,2.4h3.9v9.5c0,8.7-7.1,15.8-15.8,15.8c-8.7,0-15.8-7.1-15.8-15.8v-9.5   H57c1.3,0,2.4-1.1,2.4-2.4s-1.1-2.4-2.4-2.4h-6.3c-1.3,0-2.4,1.1-2.4,2.4v11.9c0,10.6,8,19.3,18.2,20.5v10.2   c0,11.8-9.6,21.5-21.5,21.5c-11.1,0-20.3-8.5-21.4-19.4c4.7-1.1,8.2-5.4,8.2-10.4c0-5.9-4.8-10.7-10.7-10.7   c-5.9,0-10.7,4.8-10.7,10.7c0,5.1,3.6,9.4,8.4,10.4C19.9,75,31.2,85.7,45,85.7c14.5,0,26.3-11.8,26.3-26.3V49.1   c10.2-1.2,18.2-9.9,18.2-20.5V16.7C89.6,15.4,88.5,14.3,87.1,14.3z M15.3,51.1c0-3.2,2.6-5.9,5.9-5.9c3.2,0,5.9,2.6,5.9,5.9   c0,3.2-2.6,5.9-5.9,5.9C17.9,56.9,15.3,54.3,15.3,51.1z"
       id="path3417"
       style="fill:#00a7c0;fill-opacity:1;stroke:#00a7c0;stroke-opacity:0" /><circle
       cx="21.1"
       cy="51.1"
       r="2.3"
       id="circle3419"
       style="fill:#00a7c0;fill-opacity:1;stroke:#00a7c0;stroke-opacity:0" /></g></svg>