<?xml version="1.0" encoding="utf-8"?>
<!-- Generator: Adobe Illustrator 19.2.0, SVG Export Plug-In . SVG Version: 6.00 Build 0)  -->
<svg version="1.1" id="Layer_1" xmlns="http://www.w3.org/2000/svg" xmlns:xlink="http://www.w3.org/1999/xlink" x="0px" y="0px"
	 width="204.8px" height="117.6px" viewBox="0 0 204.8 117.6" style="enable-background:new 0 0 204.8 117.6;" xml:space="preserve"
	>
<style type="text/css">
	.st0{fill:#FDFFFF;}
	.st1{fill:#91837D;}
	.st2{fill:#CEC5C2;}
	.st3{fill:#4E4541;}
	.st4{fill:none;stroke:#CEC5C2;stroke-miterlimit:10;}
</style>
<rect y="-0.1" class="st0" width="204.8" height="78.8"/>
<path class="st1" d="M12.6,67.8c0,1.8-1.1,2.9-2.4,2.9s-2.4-1.1-2.4-2.9s1.1-2.9,2.4-2.9S12.6,65.9,12.6,67.8z M8.8,67.8
	c0,1.4,0.7,2.1,1.5,2.1s1.5-0.7,1.5-2.1s-0.6-2.1-1.5-2.1C9.5,65.7,8.8,66.4,8.8,67.8z"/>
<path class="st1" d="M15.9,70.6H15v-4.4l-1.4,0.6v-0.9l2.3-1C15.9,64.9,15.9,70.6,15.9,70.6z"/>
<path class="st1" d="M17.2,65.8c0.3-0.4,0.8-0.9,1.8-0.9c1.2,0,1.9,0.7,1.9,1.8c0,0.7-0.4,1.2-0.7,1.6l-1.4,1.5H21v0.8h-3.6v-0.7
	l2-2.2c0.3-0.3,0.5-0.7,0.5-1.1c0-0.6-0.4-1-1-1s-0.9,0.3-1.1,0.6L17.2,65.8z"/>
<path class="st1" d="M25.6,66.4c0,0.6-0.3,1-0.9,1.3c0.6,0.2,1,0.7,1,1.3c0,1.1-1,1.6-2,1.6c-0.8,0-1.5-0.3-1.9-0.8l0.6-0.6
	c0.3,0.4,0.8,0.6,1.4,0.6s1.1-0.3,1.1-0.9S24.4,68,23.7,68H23v-0.8h0.7c0.6,0,1.1-0.3,1.1-0.8s-0.5-0.8-1.1-0.8
	c-0.5,0-0.9,0.3-1.1,0.6L22,65.8c0.3-0.5,0.9-0.9,1.8-0.9C24.8,64.9,25.6,65.4,25.6,66.4z"/>
<path class="st1" d="M30,68.7h0.9v0.8H30v1.1h-0.9v-1.1h-2.5v-0.7l2.1-3.8h1l-2,3.7h1.5v-1.5H30V68.7z"/>
<path class="st1" d="M35.3,65.8H33v1.4h0.7c1.3,0,1.9,0.8,1.9,1.7c0,1.2-0.9,1.8-2,1.8c-0.8,0-1.5-0.3-1.9-0.9l0.6-0.6
	c0.3,0.4,0.9,0.6,1.4,0.6c0.7,0,1.1-0.5,1.1-0.9c0-0.5-0.3-0.9-1.3-0.9h-1.3l0.1-3h3.1v0.8H35.3L35.3,65.8z"/>
<path class="st1" d="M38.3,66.9c0.1,0,0.2-0.1,0.4-0.1c1,0,1.9,0.8,1.9,1.9s-0.9,1.9-2,1.9c-1.2,0-2-0.8-2-1.9
	c0-0.5,0.2-0.9,0.5-1.4l1.6-2.4h1.1L38.3,66.9z M37.4,68.8c0,0.6,0.5,1.1,1.1,1.1s1.1-0.4,1.1-1.1s-0.5-1.1-1.1-1.1
	C37.9,67.8,37.4,68.2,37.4,68.8z"/>
<path class="st1" d="M45.2,65.7l-2.4,4.9h-1l2.4-4.8h-2.8V65h3.8V65.7z"/>
<path class="st1" d="M50.2,66.4c0,0.6-0.4,1-0.9,1.3c0.5,0.2,1,0.6,1,1.3c0,1-1,1.6-2.1,1.6c-1.2,0-2.1-0.6-2.1-1.6
	c0-0.7,0.4-1.1,1-1.3c-0.5-0.2-0.9-0.6-0.9-1.3c0-1,0.9-1.6,2-1.6C49.3,64.9,50.2,65.4,50.2,66.4z M47,68.9c0,0.6,0.5,0.9,1.2,0.9
	s1.2-0.3,1.2-0.9S48.9,68,48.2,68C47.6,68.1,47,68.4,47,68.9z M47.1,66.4c0,0.6,0.5,0.9,1.1,0.9s1.1-0.3,1.1-0.9
	c0-0.5-0.5-0.8-1.1-0.8S47.1,65.9,47.1,66.4z"/>
<path class="st1" d="M53.6,68.4c-0.1,0-0.2,0.1-0.4,0.1c-1,0-1.9-0.8-1.9-1.9s0.9-1.9,2-1.9c1.2,0,2,0.8,2,1.9
	c0,0.5-0.2,0.9-0.5,1.4l-1.6,2.4h-1.1L53.6,68.4z M54.5,66.7c0-0.6-0.5-1.1-1.1-1.1s-1.1,0.4-1.1,1.1c0,0.6,0.5,1.1,1.1,1.1
	C54,67.8,54.5,67.4,54.5,66.7z"/>
<path class="st1" d="M87.2,67.8c0,1.8-1.1,2.9-2.4,2.9s-2.4-1.1-2.4-2.9s1.1-2.9,2.4-2.9C86.2,64.9,87.2,65.9,87.2,67.8z M83.4,67.8
	c0,1.4,0.7,2.1,1.5,2.1s1.5-0.7,1.5-2.1s-0.6-2.1-1.5-2.1C84.1,65.7,83.4,66.4,83.4,67.8z"/>
<path class="st1" d="M90.5,70.6h-0.9v-4.4l-1.4,0.6v-0.9l2.3-1V70.6L90.5,70.6z"/>
<path class="st1" d="M91.8,65.8c0.3-0.4,0.8-0.9,1.8-0.9c1.2,0,1.9,0.7,1.9,1.8c0,0.7-0.4,1.2-0.7,1.6l-1.4,1.5h2.3v0.8H92v-0.7
	l2-2.2c0.3-0.3,0.5-0.7,0.5-1.1c0-0.6-0.4-1-1-1s-0.9,0.3-1.1,0.6L91.8,65.8z"/>
<path class="st1" d="M100.2,66.4c0,0.6-0.3,1-0.9,1.3c0.6,0.2,1,0.7,1,1.3c0,1.1-1,1.6-2,1.6c-0.8,0-1.5-0.3-1.9-0.8l0.6-0.6
	c0.3,0.4,0.8,0.6,1.4,0.6s1.1-0.3,1.1-0.9S99,68,98.3,68h-0.7v-0.8h0.7c0.6,0,1.1-0.3,1.1-0.8s-0.5-0.8-1.1-0.8
	c-0.5,0-0.9,0.3-1.1,0.6l-0.6-0.5c0.3-0.5,0.9-0.9,1.8-0.9C99.5,64.9,100.2,65.4,100.2,66.4z"/>
<path class="st1" d="M108.6,67.8c0,1.8-1.1,2.9-2.4,2.9s-2.4-1.1-2.4-2.9s1.1-2.9,2.4-2.9C107.6,64.9,108.6,65.9,108.6,67.8z
	 M104.8,67.8c0,1.4,0.7,2.1,1.5,2.1s1.5-0.7,1.5-2.1s-0.6-2.1-1.5-2.1C105.5,65.7,104.8,66.4,104.8,67.8z"/>
<path class="st1" d="M114.5,67.8c0,1.8-1.1,2.9-2.4,2.9s-2.4-1.1-2.4-2.9s1.1-2.9,2.4-2.9C113.5,64.9,114.5,65.9,114.5,67.8z
	 M110.7,67.8c0,1.4,0.7,2.1,1.5,2.1s1.5-0.7,1.5-2.1s-0.6-2.1-1.5-2.1C111.4,65.7,110.7,66.4,110.7,67.8z"/>
<path class="st1" d="M118.9,68.7h0.9v0.8h-0.9v1.1H118v-1.1h-2.5v-0.7l2.1-3.8h1l-2,3.7h1.5v-1.5h0.9L118.9,68.7L118.9,68.7z"/>
<path class="st1" d="M124.1,65.8h-2.3v1.4h0.7c1.3,0,1.9,0.8,1.9,1.7c0,1.2-0.9,1.8-2,1.8c-0.8,0-1.5-0.3-1.9-0.9l0.6-0.6
	c0.3,0.4,0.9,0.6,1.4,0.6c0.7,0,1.1-0.5,1.1-0.9c0-0.5-0.3-0.9-1.3-0.9H121l0.1-3h3.1L124.1,65.8L124.1,65.8z"/>
<path class="st1" d="M127.1,66.9c0.1,0,0.2-0.1,0.4-0.1c1,0,1.9,0.8,1.9,1.9s-0.9,1.9-2,1.9c-1.2,0-2-0.8-2-1.9
	c0-0.5,0.2-0.9,0.5-1.4l1.6-2.4h1.1L127.1,66.9z M126.3,68.8c0,0.6,0.5,1.1,1.1,1.1s1.1-0.4,1.1-1.1s-0.5-1.1-1.1-1.1
	C126.7,67.8,126.3,68.2,126.3,68.8z"/>
<path class="st1" d="M134,65.7l-2.4,4.9h-1l2.4-4.8h-2.8V65h3.8V65.7z"/>
<path class="st1" d="M139.1,66.4c0,0.6-0.4,1-0.9,1.3c0.5,0.2,1,0.6,1,1.3c0,1-1,1.6-2.1,1.6c-1.2,0-2.1-0.6-2.1-1.6
	c0-0.7,0.4-1.1,1-1.3c-0.5-0.2-0.9-0.6-0.9-1.3c0-1,0.9-1.6,2-1.6C138.2,64.9,139.1,65.4,139.1,66.4z M135.9,68.9
	c0,0.6,0.5,0.9,1.2,0.9s1.2-0.3,1.2-0.9s-0.5-0.9-1.2-0.9S135.9,68.4,135.9,68.9z M136,66.4c0,0.6,0.5,0.9,1.1,0.9s1.1-0.3,1.1-0.9
	c0-0.5-0.5-0.8-1.1-0.8S136,65.9,136,66.4z"/>
<path class="st1" d="M162.3,70.6h-0.9v-4.4l-1.4,0.6v-0.9l2.3-1L162.3,70.6L162.3,70.6z"/>
<path class="st1" d="M163.6,65.8c0.3-0.4,0.8-0.9,1.8-0.9c1.2,0,1.9,0.7,1.9,1.8c0,0.7-0.4,1.2-0.7,1.6l-1.4,1.5h2.3v0.8h-3.6v-0.7
	l2-2.2c0.3-0.3,0.5-0.7,0.5-1.1c0-0.6-0.4-1-1-1s-0.9,0.3-1.1,0.6L163.6,65.8z"/>
<path class="st1" d="M172,66.4c0,0.6-0.3,1-0.9,1.3c0.6,0.2,1,0.7,1,1.3c0,1.1-1,1.6-2,1.6c-0.8,0-1.5-0.3-1.9-0.8l0.6-0.6
	c0.3,0.4,0.8,0.6,1.4,0.6c0.6,0,1.1-0.3,1.1-0.9s-0.5-0.9-1.2-0.9h-0.7v-0.8h0.7c0.6,0,1.1-0.3,1.1-0.8s-0.5-0.8-1.1-0.8
	c-0.5,0-0.9,0.3-1.1,0.6l-0.6-0.5c0.3-0.5,0.9-0.9,1.8-0.9C171.2,64.9,172,65.4,172,66.4z"/>
<rect x="7.4" y="10.7" class="st2" width="74.6" height="3"/>
<rect x="160.1" y="10.7" class="st2" width="37.3" height="3"/>
<rect x="7.4" y="20.7" class="st2" width="51.1" height="3"/>
<rect x="7.4" y="35.7" class="st2" width="146.7" height="1"/>
<rect x="7.4" y="45.7" class="st2" width="190" height="1"/>
<path class="st3" d="M9.6,96.6c1.8,0,2.7,0.8,2.7,2.2c0,1.3-1,2.2-2.6,2.2l2.5,3.2h-1.5L8.2,101H7.7v3.2H6.5v-7.7h3.1V96.6z
	 M7.7,97.8v2.2h1.9c1,0,1.5-0.4,1.5-1.1s-0.5-1.1-1.5-1.1H7.7L7.7,97.8z"/>
<path class="st3" d="M19,101.7c0,1.6-1.2,2.8-2.8,2.8c-1.6,0-2.8-1.2-2.8-2.8s1.2-2.8,2.8-2.8S19,100.1,19,101.7z M14.5,101.7
	c0,1,0.7,1.7,1.6,1.7c0.9,0,1.7-0.7,1.7-1.7s-0.7-1.7-1.7-1.7C15.2,99.9,14.5,100.7,14.5,101.7z"/>
<path class="st3" d="M25.2,102.1c0,1.7-1.2,2.4-2.4,2.4c-1.2,0-2.4-0.7-2.4-2.4v-3h1.2v2.9c0,1,0.6,1.4,1.3,1.4
	c0.7,0,1.3-0.4,1.3-1.4v-3h1.2v3.1H25.2z"/>
<path class="st3" d="M30.6,100.1h-2v2.3c0,0.7,0.4,1,0.8,1s0.7-0.2,1.1-0.4l0.5,0.9c-0.4,0.3-1,0.5-1.6,0.5c-1.2,0-1.9-0.6-1.9-2
	v-2.3h-1v-1h1v-1.6h1.2V99h2v1.1H30.6z"/>
<path class="st3" d="M33.4,97.2c0,0.5-0.4,0.8-0.8,0.8s-0.8-0.3-0.8-0.8s0.3-0.8,0.8-0.8S33.4,96.8,33.4,97.2z M33.1,104.2H32v-5.3
	h1.2v5.3H33.1z"/>
<path class="st3" d="M39.8,100.9v3.3h-1.2v-2.9c0-0.9-0.5-1.4-1.2-1.4s-1.4,0.5-1.4,1.4v2.9h-1.2v-5.3h1.1v0.6
	c0.4-0.6,1.1-0.8,1.6-0.8C38.9,98.9,39.8,99.8,39.8,100.9z"/>
<path class="st3" d="M45.4,99.7V99h1.2v4.9c0,1.7-1.1,2.7-2.8,2.7c-0.8,0-1.6-0.2-2.2-0.6l0.4-1c0.5,0.3,1.1,0.5,1.8,0.5
	c1.1,0,1.7-0.6,1.7-1.6v-0.4c-0.4,0.5-1,0.8-1.8,0.8c-1.2,0-2.4-1-2.4-2.7s1.2-2.7,2.4-2.7C44.4,98.9,45,99.2,45.4,99.7z
	 M42.4,101.6c0,0.9,0.6,1.6,1.6,1.6c0.9,0,1.6-0.7,1.6-1.6S45,100,44,100S42.4,100.7,42.4,101.6z"/>
<path class="st3" d="M13.1,117.4H12l-4.3-5.6v5.6H6.5v-7.7h1.1l4.3,5.6v-5.6h1.2C13.1,109.8,13.1,117.4,13.1,117.4z"/>
<path class="st3" d="M19.9,115.3c0,1.7-1.2,2.4-2.4,2.4s-2.4-0.7-2.4-2.4v-3h1.2v2.9c0,1,0.6,1.4,1.3,1.4c0.7,0,1.3-0.4,1.3-1.4
	v-2.9h1.2v3H19.9z"/>
<path class="st3" d="M30.3,114.2v3.3h-1.2v-2.9c0-0.9-0.5-1.4-1.2-1.4s-1.4,0.5-1.4,1.4v2.9h-1.2v-2.9c0-0.9-0.5-1.4-1.2-1.4
	s-1.4,0.5-1.4,1.4v2.9h-1.2v-5.3h1.1v0.6c0.4-0.6,1.1-0.8,1.6-0.8c0.8,0,1.5,0.4,1.8,0.9c0.5-0.8,1.3-0.9,1.9-0.9
	C29.4,112.1,30.3,112.9,30.3,114.2z"/>
<path class="st3" d="M37.5,114.8c0,1.6-1.2,2.8-2.6,2.8c-0.7,0-1.3-0.3-1.6-0.8v0.6h-1.1v-7.9h1.1v3.3c0.4-0.5,0.9-0.8,1.6-0.8
	C36.3,112.1,37.5,113.2,37.5,114.8z M33.1,114.8c0,1,0.6,1.7,1.6,1.7s1.6-0.8,1.6-1.7s-0.6-1.7-1.6-1.7
	C33.8,113.2,33.1,113.8,33.1,114.8z"/>
<path class="st3" d="M43.7,114.8c0,0.1,0,0.3,0,0.4h-3.9c0.2,0.9,0.8,1.3,1.6,1.3c0.5,0,1.1-0.2,1.5-0.6l0.6,0.8
	c-0.6,0.5-1.4,0.7-2.2,0.7c-1.6,0-2.7-1.1-2.7-2.8c0-1.6,1.1-2.8,2.6-2.8C42.6,112.1,43.6,113.2,43.7,114.8z M39.7,114.3h2.7
	c-0.1-0.8-0.6-1.3-1.3-1.3C40.3,113.1,39.9,113.7,39.7,114.3z"/>
<path class="st3" d="M48.6,112.2l-0.3,1.1c-0.2-0.1-0.6-0.2-0.9-0.2c-0.7,0-1.3,0.5-1.3,1.4v2.9H45v-5.3h1.1v0.6
	c0.3-0.5,0.9-0.7,1.5-0.7C48.1,112.1,48.4,112.2,48.6,112.2z"/>
<path class="st3" d="M89.8,104.2h-1.3l-0.8-2h-3.5l-0.8,2h-1.3l3-7.7h1.5L89.8,104.2z M84.7,101.2h2.6L86,97.9L84.7,101.2z"/>
<path class="st3" d="M95.2,99.8l-0.7,0.8c-0.4-0.3-0.8-0.5-1.3-0.5c-0.9,0-1.6,0.7-1.6,1.7s0.7,1.7,1.6,1.7c0.5,0,1-0.2,1.3-0.5
	l0.7,0.8c-0.5,0.6-1.2,0.8-2,0.8c-1.7,0-2.8-1.2-2.8-2.8s1.1-2.8,2.8-2.8C94,98.9,94.7,99.2,95.2,99.8z"/>
<path class="st3" d="M100.7,99.8l-0.7,0.8c-0.4-0.3-0.8-0.5-1.3-0.5c-0.9,0-1.6,0.7-1.6,1.7s0.7,1.7,1.6,1.7c0.5,0,1-0.2,1.3-0.5
	l0.7,0.8c-0.5,0.6-1.2,0.8-2,0.8c-1.7,0-2.8-1.2-2.8-2.8S97,99,98.7,99C99.6,98.9,100.3,99.2,100.7,99.8z"/>
<path class="st3" d="M107.2,101.7c0,1.6-1.2,2.8-2.8,2.8s-2.8-1.2-2.8-2.8s1.2-2.8,2.8-2.8S107.2,100.1,107.2,101.7z M102.7,101.7
	c0,1,0.7,1.7,1.6,1.7s1.7-0.7,1.7-1.7s-0.7-1.7-1.7-1.7C103.4,99.9,102.7,100.7,102.7,101.7z"/>
<path class="st3" d="M113.5,102.1c0,1.7-1.2,2.4-2.4,2.4s-2.4-0.7-2.4-2.4v-3h1.2v2.9c0,1,0.6,1.4,1.3,1.4s1.3-0.4,1.3-1.4v-3h1.2
	v3.1H113.5z"/>
<path class="st3" d="M120.1,100.9v3.3H119v-2.9c0-0.9-0.5-1.4-1.2-1.4s-1.4,0.5-1.4,1.4v2.9h-1.2v-5.3h1.1v0.6
	c0.4-0.6,1.1-0.8,1.6-0.8C119.2,98.9,120.1,99.8,120.1,100.9z"/>
<path class="st3" d="M125.4,100.1h-2v2.3c0,0.7,0.4,1,0.8,1s0.7-0.2,1.1-0.4l0.5,0.9c-0.4,0.3-1,0.5-1.6,0.5c-1.2,0-1.9-0.6-1.9-2
	v-2.3h-1v-1h1v-1.6h1.2V99h2L125.4,100.1L125.4,100.1z"/>
<path class="st3" d="M89.7,117.4h-1.1l-4.3-5.6v5.6h-1.2v-7.7h1.1l4.3,5.6v-5.6h1.2V117.4z"/>
<path class="st3" d="M96.5,115.3c0,1.7-1.2,2.4-2.4,2.4s-2.4-0.7-2.4-2.4v-3h1.2v2.9c0,1,0.6,1.4,1.3,1.4s1.3-0.4,1.3-1.4v-2.9h1.2
	v3H96.5z"/>
<path class="st3" d="M106.9,114.2v3.3h-1.2v-2.9c0-0.9-0.5-1.4-1.2-1.4s-1.4,0.5-1.4,1.4v2.9H102v-2.9c0-0.9-0.5-1.4-1.2-1.4
	s-1.4,0.5-1.4,1.4v2.9h-1.2v-5.3h1.1v0.6c0.4-0.6,1.1-0.8,1.6-0.8c0.8,0,1.5,0.4,1.8,0.9c0.5-0.8,1.3-0.9,1.9-0.9
	C106,112.1,106.9,112.9,106.9,114.2z"/>
<path class="st3" d="M114.1,114.8c0,1.6-1.2,2.8-2.6,2.8c-0.7,0-1.3-0.3-1.6-0.8v0.6h-1.1v-7.9h1.1v3.3c0.4-0.5,0.9-0.8,1.6-0.8
	C112.9,112.1,114.1,113.2,114.1,114.8z M109.7,114.8c0,1,0.6,1.7,1.6,1.7s1.6-0.8,1.6-1.7s-0.6-1.7-1.6-1.7
	C110.4,113.2,109.7,113.8,109.7,114.8z"/>
<path class="st3" d="M120.2,114.8c0,0.1,0,0.3,0,0.4h-3.9c0.2,0.9,0.8,1.3,1.6,1.3c0.5,0,1.1-0.2,1.5-0.6l0.6,0.8
	c-0.6,0.5-1.4,0.7-2.2,0.7c-1.6,0-2.7-1.1-2.7-2.8c0-1.6,1.1-2.8,2.6-2.8C119.2,112.1,120.2,113.2,120.2,114.8z M116.3,114.3h2.7
	c-0.1-0.8-0.6-1.3-1.3-1.3C116.9,113.1,116.5,113.7,116.3,114.3z"/>
<path class="st3" d="M125.2,112.2l-0.3,1.1c-0.2-0.1-0.6-0.2-0.9-0.2c-0.7,0-1.3,0.5-1.3,1.4v2.9h-1.1v-5.3h1.1v0.6
	c0.3-0.5,0.9-0.7,1.5-0.7C124.7,112.1,125,112.2,125.2,112.2z"/>
<rect x="6.9" y="74.4" class="st1" width="1" height="16"/>
<rect x="82" y="74.4" class="st1" width="1" height="16"/>
<path class="st3" d="M167.2,98.1l-1,0.7c-0.5-0.7-1.2-1.1-2.1-1.1c-1.6,0-2.7,1.1-2.7,2.8s1.2,2.8,2.7,2.8c0.9,0,1.7-0.4,2.1-1.1
	l1,0.7c-0.7,1-1.8,1.6-3.2,1.6c-2.4,0-4-1.7-4-4s1.7-4,4-4C165.3,96.4,166.6,97.1,167.2,98.1z"/>
<path class="st3" d="M169.8,99.7c0.4-0.6,1.1-0.8,1.6-0.8c1.3,0,2.1,0.9,2.1,2.1v3.3h-1.2v-2.9c0-0.9-0.5-1.4-1.2-1.4
	s-1.4,0.5-1.4,1.4v2.9h-1.1v-7.9h1.2L169.8,99.7L169.8,99.7z"/>
<path class="st3" d="M180,101.7c0,0.1,0,0.3,0,0.4h-3.9c0.2,0.9,0.8,1.3,1.6,1.3c0.5,0,1.1-0.2,1.5-0.6l0.6,0.8
	c-0.6,0.5-1.4,0.7-2.2,0.7c-1.6,0-2.7-1.1-2.7-2.8c0-1.6,1.1-2.8,2.6-2.8C179,98.9,180,99.9,180,101.7z M176.1,101.2h2.7
	c-0.1-0.8-0.6-1.3-1.3-1.3C176.7,99.9,176.2,100.4,176.1,101.2z"/>
<path class="st3" d="M185.8,99.8l-0.7,0.8c-0.4-0.3-0.8-0.5-1.3-0.5c-0.9,0-1.6,0.7-1.6,1.7s0.7,1.7,1.6,1.7c0.5,0,1-0.2,1.3-0.5
	l0.7,0.8c-0.5,0.6-1.2,0.8-2,0.8c-1.7,0-2.8-1.2-2.8-2.8s1.1-2.8,2.8-2.8C184.6,98.9,185.3,99.2,185.8,99.8z"/>
<path class="st3" d="M188.3,100.9h0.6l1.7-2h1.4l-2.2,2.5l2.2,2.8h-1.4l-1.8-2.2h-0.6v2.2H187v-7.9h1.2v4.6H188.3L188.3,100.9z"/>
<path class="st3" d="M167,117.4h-1.1l-4.3-5.6v5.6h-1.2v-7.7h1.1l4.3,5.6v-5.6h1.2V117.4z"/>
<path class="st3" d="M173.8,115.3c0,1.7-1.2,2.4-2.4,2.4s-2.4-0.7-2.4-2.4v-3h1.2v2.9c0,1,0.6,1.4,1.3,1.4s1.3-0.4,1.3-1.4v-2.9h1.2
	v3H173.8z"/>
<path class="st3" d="M184.2,114.2v3.3H183v-2.9c0-0.9-0.5-1.4-1.2-1.4s-1.4,0.5-1.4,1.4v2.9h-1.2v-2.9c0-0.9-0.5-1.4-1.2-1.4
	s-1.4,0.5-1.4,1.4v2.9h-1v-5.3h1.1v0.6c0.4-0.6,1.1-0.8,1.6-0.8c0.8,0,1.5,0.4,1.8,0.9c0.5-0.8,1.3-0.9,1.9-0.9
	C183.3,112.1,184.2,112.9,184.2,114.2z"/>
<path class="st3" d="M191.4,114.8c0,1.6-1.2,2.8-2.6,2.8c-0.7,0-1.3-0.3-1.6-0.8v0.6h-1.1v-7.9h1.1v3.3c0.4-0.5,0.9-0.8,1.6-0.8
	C190.2,112.1,191.4,113.2,191.4,114.8z M187,114.8c0,1,0.6,1.7,1.6,1.7s1.6-0.8,1.6-1.7s-0.6-1.7-1.6-1.7
	C187.7,113.2,187,113.8,187,114.8z"/>
<path class="st3" d="M197.5,114.8c0,0.1,0,0.3,0,0.4h-3.9c0.2,0.9,0.8,1.3,1.6,1.3c0.5,0,1.1-0.2,1.5-0.6l0.6,0.8
	c-0.6,0.5-1.4,0.7-2.2,0.7c-1.6,0-2.7-1.1-2.7-2.8c0-1.6,1.1-2.8,2.6-2.8C196.5,112.1,197.5,113.2,197.5,114.8z M193.6,114.3h2.7
	c-0.1-0.8-0.6-1.3-1.3-1.3C194.2,113.1,193.8,113.7,193.6,114.3z"/>
<path class="st3" d="M202.5,112.2l-0.3,1.1c-0.2-0.1-0.6-0.2-0.9-0.2c-0.7,0-1.3,0.5-1.3,1.4v2.9h-1.1v-5.3h1.1v0.6
	c0.3-0.5,0.9-0.7,1.5-0.7C202,112.1,202.3,112.2,202.5,112.2z"/>
<rect x="160" y="74.4" class="st1" width="1" height="16"/>
<rect x="159.9" y="27.9" class="st4" width="37.3" height="8.3"/>
</svg>
