<?xml version="1.0" encoding="utf-8"?>
<!-- Generator: Adobe Illustrator 17.1.0, SVG Export Plug-In . SVG Version: 6.00 Build 0)  -->
<!DOCTYPE svg PUBLIC "-//W3C//DTD SVG 1.1//EN" "http://www.w3.org/Graphics/SVG/1.1/DTD/svg11.dtd">
<svg version="1.1" id="Layer_1" xmlns="http://www.w3.org/2000/svg" xmlns:xlink="http://www.w3.org/1999/xlink" x="0px" y="0px"
	 width="215px" height="29.3px" viewBox="0 0 215 29.3" enable-background="new 0 0 215 29.3" xml:space="preserve">
<g>
	<path fill="#007AC2" d="M28.1,5.9L28.1,5.9l0.3,0V0.5H0v28.4l5.3,0v-0.1C5.3,16.2,15.5,5.9,28.1,5.9z"/>
	<path fill="#007AC2" d="M28.2,11.7C28.2,11.7,28.2,11.7,28.2,11.7c-9.5,0-17.1,7.6-17.1,17.1h0v0.1l17.2,0V11.7L28.2,11.7
		L28.2,11.7z"/>
	<path fill="#007AC2" d="M28.2,7.6L28.2,7.6C28.2,7.6,28.2,7.6,28.2,7.6C16.5,7.6,7,17.1,7,28.8l0,0v0.1l2.9,0v-0.2h0
		c0-10,8.1-18.1,18.1-18.2v0l0.3,0V7.6H28.2z"/>
	<rect x="28.4" y="10.5" fill="#FFFFFF" width="0" height="1.2"/>
	<path fill="#FFFFFF" d="M28.1,10.5c-10,0-18.1,8.2-18.1,18.2h0v0.2h1.2v-0.1h0c0-9.4,7.6-17.1,17.1-17.1c0,0,0,0,0,0l0,0l0.1,0
		v-1.2L28.1,10.5L28.1,10.5z"/>
	<path fill="#FFFFFF" d="M7,28.8C7,17.1,16.5,7.6,28.2,7.6c0,0,0,0,0,0v0h0.1V5.9h-0.3v0C15.5,5.9,5.3,16.2,5.3,28.8v0.1H7V28.8
		L7,28.8z"/>
</g>
<g>
	<path fill="#231F20" d="M66.7,1.7c-2.4,0.2-3.4,0.5-3.4,3.8v18.8c0,3.3,0.9,3.6,3.4,3.8v0.8H55.8v-0.8c3-0.2,3.5-0.8,3.5-4.3v-19
		h-0.1l-9.9,24.1h-0.5L39.1,5.8H39v16.9c0,4.3,0.8,5.3,3.7,5.4v0.8h-9.1v-0.8c3-0.2,3.8-0.8,3.8-5.4V5.5c0-3.3-0.8-3.6-3.7-3.8V0.9
		h7.7l9,21.3l8.6-21.3h7.7V1.7z"/>
	<path fill="#231F20" d="M77.4,23.7c0,1.3-0.1,1.8-1.3,2.4c-0.3,0.2-1.6,0.8-2.4,0.8c-1.4,0-2.6-1.3-2.6-3.3v-0.1
		c0-1.4,0.4-3.8,6.3-5.9V23.7z M83.4,26.1c-0.4,0.4-0.9,0.8-1.7,0.8c-1.1,0-1.1-1.2-1.1-2.5v-8.2c0-2.5,0-6.8-5.8-6.8
		c-4.5,0-6.3,3-6.3,4.7c0,0.7,0.5,1.9,1.7,1.9c1,0,1.7-0.9,1.7-1.8c0-0.4-0.2-1-0.2-1.6c0-1.3,1.5-2.1,2.8-2.1c1.2,0,3,0.5,3,3.5
		v2.6c-6.3,2.7-9.7,4.1-9.7,8.4c0,2.8,2,4.4,4.1,4.4c2.1,0,4.2-1.7,5.6-3.1c0.2,3,1.8,3.1,2.5,3.1c0.6,0,1.8,0,3.5-2.1V26.1z"/>
	<path fill="#231F20" d="M94.2,15.6c-0.9-4.3-2.6-5.2-4.3-5.2c-2.1,0-3,1.6-3,2.7c0,0.9,0.2,2.1,1.7,3l4.2,2.7
		c1.9,1.3,3.3,2.5,3.3,5c0,3.7-3.2,5.5-5.6,5.5c-1.7,0-3.4-0.8-4.5-0.8c-0.5,0-0.6,0.1-0.9,0.5h-0.5v-6.6h0.6c0.5,2.2,1.2,5.9,5,5.9
		c1.3,0,3.2-0.7,3.2-3.1c0-1.4-0.8-2.4-2-3.1l-2.2-1.4c-2.4-1.5-4.6-3-4.6-6.2c0-2.4,1.7-5.2,5.5-5.2c1.7,0,2.9,0.8,3.6,0.8
		c0.4,0,0.5-0.3,0.7-0.5h0.4l0.2,5.8H94.2z"/>
	<path fill="#231F20" d="M108.1,15.6c-0.9-4.3-2.6-5.2-4.3-5.2c-2.1,0-3,1.6-3,2.7c0,0.9,0.2,2.1,1.7,3l4.2,2.7
		c1.9,1.3,3.3,2.5,3.3,5c0,3.7-3.2,5.5-5.6,5.5c-1.7,0-3.4-0.8-4.5-0.8c-0.5,0-0.6,0.1-0.9,0.5h-0.5v-6.6h0.6c0.5,2.2,1.2,5.9,5,5.9
		c1.3,0,3.1-0.7,3.1-3.1c0-1.4-0.8-2.4-2-3.1l-2.3-1.4c-2.4-1.5-4.6-3-4.6-6.2c0-2.4,1.7-5.2,5.4-5.2c1.7,0,2.9,0.8,3.6,0.8
		c0.4,0,0.5-0.3,0.7-0.5h0.4l0.2,5.8H108.1z"/>
	<path fill="#231F20" d="M144,1.7c-2.5,0.2-3.4,0.5-3.4,3.8v18.8c0,3.3,0.9,3.6,3.4,3.8v0.8h-10.9v-0.8c3-0.2,3.5-0.8,3.5-4.3v-19
		h-0.1l-9.9,24.1h-0.5l-9.7-23.1h-0.1v16.9c0,4.3,0.8,5.3,3.7,5.4v0.8h-9.1v-0.8c3-0.2,3.8-0.8,3.8-5.4V5.5c0-3.3-0.8-3.6-3.7-3.8
		V0.9h7.7l9,21.3l8.6-21.3h7.7V1.7z"/>
	<path fill="#231F20" d="M161.2,27.4c-2.1,0.6-3.6,1.2-5.4,1.9l-0.1-0.1v-3.5l-1.7,1.8c-1.5,1.6-3.4,1.8-4.1,1.8
		c-1.6,0-4.6-1-4.6-5.5V13.1c0-2.5-1.2-2.6-2.4-2.7V9.9h5.7v13.8c0,0.6,0.4,3.2,2.9,3.2c1.2,0,2.3-0.6,3.4-1.5
		c0.4-0.3,0.6-0.8,0.6-2.2v-9.9c0-1.7-0.1-2.6-2.9-2.7V9.9h6.2v14.5c0,1.5,0.1,2.5,2.4,2.4V27.4z"/>
	<path fill="#231F20" d="M170.2,11.2h-3.9v12.1c0,1.3,0,3.8,2,3.8c1.2,0,2-0.9,2.4-1.5l0.5,0.5c-0.9,1.8-2.8,3.2-4.5,3.2
		c-2,0-3.6-1.1-3.6-5.4V11.2H161c-0.1,0-0.2-0.2-0.2-0.3c0-0.5,0.9-0.8,1.7-1.7c1.5-1.7,2.1-2.6,3.5-4.8c0.3,0,0.3,0.2,0.3,0.6v4.9
		h3.9V11.2z"/>
	<path fill="#231F20" d="M189.3,27.4c-2.1,0.6-3.6,1.2-5.4,1.9l-0.1-0.1v-3.5l-1.7,1.8c-1.5,1.6-3.4,1.8-4.1,1.8
		c-1.6,0-4.6-1-4.6-5.5V13.1c0-2.5-1.2-2.6-2.4-2.7V9.9h5.7v13.8c0,0.6,0.3,3.2,2.9,3.2c1.2,0,2.3-0.6,3.4-1.5
		c0.3-0.3,0.6-0.8,0.6-2.2v-9.9c0-1.7-0.2-2.6-2.9-2.7V9.9h6.1v14.5c0,1.5,0.1,2.5,2.4,2.4V27.4z"/>
	<path fill="#231F20" d="M200.1,23.7c0,1.3-0.1,1.8-1.3,2.4c-0.3,0.2-1.5,0.8-2.4,0.8c-1.4,0-2.6-1.3-2.6-3.3v-0.1
		c0-1.4,0.4-3.8,6.3-5.9V23.7z M206.1,26.1c-0.4,0.4-0.9,0.8-1.8,0.8c-1.1,0-1.1-1.2-1.1-2.5v-8.2c0-2.5,0-6.8-5.8-6.8
		c-4.5,0-6.3,3-6.3,4.7c0,0.7,0.5,1.9,1.7,1.9c1,0,1.8-0.9,1.8-1.8c0-0.4-0.2-1-0.2-1.6c0-1.3,1.5-2.1,2.8-2.1c1.2,0,3,0.5,3,3.5
		v2.6c-6.3,2.7-9.7,4.1-9.7,8.4c0,2.8,2,4.4,4.1,4.4c2.1,0,4.2-1.7,5.7-3.1c0.2,3,1.8,3.1,2.5,3.1c0.6,0,1.8,0,3.5-2.1V26.1z"/>
	<path fill="#231F20" d="M205.8,28.2c2.3-0.2,3-0.7,3-3V5c0-1.9-0.2-2.6-1.8-2.6c-0.5,0-0.9,0-1.3,0.1V1.9c2.1-0.5,4.1-1.1,6.2-1.9
		l0.2,0.1v25.2c0,2.5,0.7,2.8,2.9,2.9v0.6h-9.2V28.2z"/>
</g>
</svg>
