<?xml version="1.0" encoding="utf-8"?>
<!-- Generator: Adobe Illustrator 18.0.0, SVG Export Plug-In . SVG Version: 6.00 Build 0)  -->
<!DOCTYPE svg PUBLIC "-//W3C//DTD SVG 1.1//EN" "http://www.w3.org/Graphics/SVG/1.1/DTD/svg11.dtd">
<svg version="1.1" id="Layer_1" xmlns="http://www.w3.org/2000/svg" xmlns:xlink="http://www.w3.org/1999/xlink" x="0px" y="0px"
	 viewBox="8.6 7.3 222.5 35.1" enable-background="new 0 0 239.4 49.6" xml:space="preserve">
<polygon fill="#00A7C1" points="31.2,42.2 31.2,28.4 24,24.6 16.8,28.4 16.8,42.2 8.6,42.2 8.6,7.2 16.8,7.2 16.8,20.7 24,16.9 
	31.2,20.7 31.2,7.2 39.4,7.2 39.4,42.2 "/>
<path fill="#00A7C1" d="M55.2,35l-2.4,7.2h-8.4l13.1-35h10.2l13.1,35h-8.5L69.7,35H55.2z M65.4,22.4c-2-5.7-2.7-8.3-2.8-8.4h-0.2
	l-3,8.8l-1.7,5.2h9.7L65.4,22.4z"/>
<path fill="#00A7C1" d="M91.6,42.2l-13.9-35h9.2l5.7,14.9c2.8,7.3,4.1,11.1,4.2,11.3H97l4.1-11.2l5.6-14.9h8.7l-13.9,35H91.6z"/>
<polygon fill="#00A7C1" points="120.2,7.2 149.3,7.2 146.8,14.9 128.5,14.9 128.5,20.7 139.4,20.7 139.4,28 128.5,28 128.5,34.5 
	147.1,34.5 149.6,42.2 120.2,42.2 "/>
<path fill="#00A7C1" d="M177.8,42.2l-15.7-22.3h-0.2c0,0.1,0.1,3.8,0.1,7.8v14.5h-8.2v-35h8.5L178,28.9h0.2c0-0.1-0.1-3.3-0.1-6.9
	V7.2h8.2v35H177.8z"/>
<rect x="21.8" y="34.1" fill="#F5D00F" width="4.4" height="8.1"/>
<polygon fill="#00A7C1" points="24,24.6 24,16.9 31.2,20.7 31.2,28.4 "/>
<polygon fill="#00A7C1" points="24,24.6 24,16.9 16.8,20.7 16.8,28.4 "/>
<path fill="#F5D00F" d="M191.8,7.4h3v14.3h-3V7.4z"/>
<path fill="#F5D00F" d="M198.5,7.4h3.1v2.7h-3.1V7.4z M198.5,11.2h3v10.5h-3V11.2z"/>
<path fill="#F5D00F" d="M205.6,13.8h-1.2v-2.5h1.2v-0.7c0-1.2,0.3-2,0.8-2.6c0.6-0.5,1.4-0.8,2.4-0.8c0.9,0,1.6,0.1,2.1,0.3v2.5
	c-0.4-0.2-0.8-0.3-1.4-0.3c-0.7,0-1.1,0.4-1.1,1.1v0.4h2.4v2.4h-2.4v8h-3V13.8z"/>
<path fill="#F5D00F" d="M212.7,16.6L212.7,16.6c0-3,2.1-5.5,5.2-5.5c3.5,0,5.1,2.7,5.1,5.7c0,0.2,0,0.5,0,0.8h-7.3
	c0.3,1.4,1.2,2.1,2.6,2.1c1,0,1.7-0.3,2.6-1.1l1.7,1.5c-1,1.2-2.4,2-4.3,2C215,22,212.7,19.8,212.7,16.6z M220.1,15.7
	c-0.2-1.3-1-2.2-2.2-2.2c-1.2,0-2,0.9-2.3,2.2H220.1z"/>
<path fill="#7D7F81" d="M223.7,10.6l0.3-0.3c0.4,0.4,0.8,0.5,1.3,0.5c0.5,0,0.8-0.3,0.8-0.6v0c0-0.3-0.2-0.5-1-0.7
	c-0.9-0.2-1.3-0.5-1.3-1.1v0c0-0.6,0.5-1,1.2-1c0.5,0,0.9,0.2,1.3,0.5l-0.2,0.3c-0.3-0.3-0.7-0.4-1.1-0.4c-0.5,0-0.8,0.3-0.8,0.6v0
	c0,0.4,0.2,0.5,1,0.7c0.8,0.2,1.2,0.5,1.2,1.1v0c0,0.6-0.5,1.1-1.3,1.1C224.6,11.2,224.1,11,223.7,10.6z"/>
<path fill="#7D7F81" d="M227.5,7.4h0.4l1.4,2l1.4-2h0.4v3.7h-0.4v-3l-1.4,2h0l-1.4-2v3h-0.4V7.4z"/>
</svg>
